<svg width="18" height="15" viewBox="0 0 18 15" fill="none" xmlns="http://www.w3.org/2000/svg">
<path d="M15.75 0H2.25C1.65326 0 1.08096 0.274584 0.659008 0.76335C0.237051 1.25212 0 1.91503 0 2.60625V12.3797C0 13.0709 0.237051 13.7338 0.659008 14.2226C1.08096 14.7113 1.65326 14.9859 2.25 14.9859H15.75C16.3467 14.9859 16.919 14.7113 17.341 14.2226C17.7629 13.7338 18 13.0709 18 12.3797V2.60625C18 1.91503 17.7629 1.25212 17.341 0.76335C16.919 0.274584 16.3467 0 15.75 0ZM15.5419 4.41106L9.35437 10.2751C9.25416 10.3693 9.12904 10.4207 9 10.4207C8.87096 10.4207 8.74584 10.3693 8.64563 10.2751L2.45813 4.41106C2.39253 4.36078 2.33676 4.29512 2.29443 4.21833C2.2521 4.14153 2.22414 4.05531 2.21237 3.96522C2.20059 3.87514 2.20527 3.78319 2.22607 3.69532C2.24688 3.60745 2.28337 3.52562 2.33318 3.4551C2.38299 3.38458 2.44502 3.32695 2.51525 3.28592C2.58549 3.2449 2.66237 3.2214 2.74093 3.21693C2.8195 3.21246 2.898 3.22712 2.97137 3.25998C3.04474 3.29283 3.11134 3.34315 3.16687 3.40767L9 8.9329L14.8331 3.40767C14.9493 3.3186 15.09 3.28266 15.2277 3.30682C15.3655 3.33098 15.4906 3.41353 15.5789 3.53845C15.6671 3.66338 15.7122 3.82178 15.7054 3.983C15.6985 4.14422 15.6403 4.29676 15.5419 4.41106Z" fill="white"/>
</svg>
